<svg id="Capa_1" data-name="Capa 1" xmlns="http://www.w3.org/2000/svg" viewBox="0 0 166.8 114.7"><defs><style>.cls-1{fill:#e4570e;}.cls-2{fill:#f6811e;}.cls-3{fill:#233255;}</style></defs><g id="Page-1"><g id="Artboard"><g id="logo"><g id="Group"><g id="logo-2" data-name="logo"><g id="Page-1-2" data-name="Page-1"><path id="Fill-1" class="cls-1" d="M57.4,0a57.38,57.38,0,0,1,57.4,57.3H95.3a38,38,0,0,0-76,0H0A57.38,57.38,0,0,1,57.4,0Z"/><path id="Fill-3" class="cls-1" d="M57.4,95.3a38,38,0,0,1-38-37.9H0a57.4,57.4,0,0,0,114.8,0H95.3A37.94,37.94,0,0,1,57.4,95.3"/><path id="Fill-5" class="cls-2" d="M19.4,57.4a9.65,9.65,0,0,1-9.7,9.7,9.7,9.7,0,1,1,9.7-9.7"/><path id="Fill-7" class="cls-2" d="M114.7,57.4a9.7,9.7,0,1,1-9.7-9.7,9.65,9.65,0,0,1,9.7,9.7"/><path id="Fill-9" class="cls-3" d="M52.7,47.1c-1.4,0-2.8.6-2.8,2.2s1.3,1.9,3,2.6c2.9,1.1,6.5,2.7,6.5,7,0,4.6-3.5,7-7.7,7A11,11,0,0,1,44,62.8c.9-1.1,1.9-2.2,2.8-3.3a8,8,0,0,0,4.9,1.9,2.47,2.47,0,0,0,2.7-2.5c0-1.5-1.7-2.2-3.1-2.7-3.8-1.3-6.4-2.5-6.4-6.9s3.9-6.7,7.9-6.7A10.18,10.18,0,0,1,59.2,45c-.9,1.2-1.8,2.3-2.8,3.4a5.77,5.77,0,0,0-3.7-1.3"/><path id="Fill-11" class="cls-3" d="M70.1,53.3c-2.1,0-3.6,1.7-3.6,4.1s1.5,4.1,3.6,4.1,3.6-1.7,3.6-4.1-1.4-4.1-3.6-4.1m0,12.5a8.4,8.4,0,1,1,0-16.8,8.4,8.4,0,1,1,0,16.8"/><path id="Fill-13" class="cls-3" d="M86.4,41.9V58.8c0,1.6.6,2.3,1.5,2.2l.2,4.2a4.42,4.42,0,0,1-1.5.2c-2.7,0-5.2-1.4-5.2-5.5v-18Z"/><g id="Fill-15-Clipped"><polygon id="Fill-15" class="cls-3" points="91.1 65.5 96 65.5 96 49.3 91.1 49.3 91.1 65.5"/></g><g id="Fill-17-Clipped"><path id="Fill-17" class="cls-3" d="M108.8,54.3a4.57,4.57,0,0,0-2.9-1c-.9,0-1.7.4-1.7,1s1.4,1,2.9,1.5c2,.7,4.3,1.9,4.3,5s-2.2,4.9-6.2,4.9a9.39,9.39,0,0,1-6.5-2.4c.8-1.1,1.7-2.3,2.5-3.4a5.13,5.13,0,0,0,3.4,1.4c1,0,1.8-.4,1.8-1.1s-1.4-1.1-3-1.6c-2-.7-4.2-1.8-4.2-5s2.7-4.9,6.3-4.9a8.19,8.19,0,0,1,5.4,1.8Z"/></g><g id="Fill-18-Clipped"><path id="Fill-18" class="cls-3" d="M120.2,43.7v5.7h2.7v4.3h-2.7v6c0,1.4.9,1.5,1.6,1.5.4,0,.9-.1,1.3-.1l1,4.3a15,15,0,0,1-2.2.2c-2.9,0-6.5-.3-6.5-5.9v-6h-1.8V49.4h1.8V43.7Z"/></g><g id="Fill-19-Clipped"><polygon id="Fill-19" class="cls-3" points="126.3 65.5 131.2 65.5 131.2 49.3 126.3 49.3 126.3 65.5"/></g><g id="Fill-20-Clipped"><path id="Fill-20" class="cls-3" d="M145.4,54.4a3.49,3.49,0,0,0-2.8-1.1c-1.9,0-3.6,1.5-3.6,4.1,0,2.4,1.4,4.1,3.7,4.1a4.46,4.46,0,0,0,3-1.1l3.1,2.7a7.86,7.86,0,0,1-6,2.8c-5.2,0-8.7-3.4-8.7-8.4,0-5.3,3.8-8.4,8.5-8.4,2.8,0,4.9,1.1,6,2.8Z"/></g><g id="Fill-21-Clipped"><path id="Fill-21" class="cls-3" d="M160,59.1c-2.8.1-5.3.5-5.3,2,0,1,1.2,1.3,2.3,1.3a5.5,5.5,0,0,0,3-1.1Zm-8.9-7.9A10.89,10.89,0,0,1,158,49c3.8,0,6.9,1.9,6.9,5.8v3.4c0,1.8.5,2.9,1.4,2.9h.3l.2,4.2a4.11,4.11,0,0,1-1.4.2,4.71,4.71,0,0,1-4-1.9h-.1a7.8,7.8,0,0,1-5.2,2.3c-2.8,0-6.1-1.2-6.1-4.9,0-3.9,4.8-5,10-5.2v-.4c0-1.4-1.4-2.1-2.9-2.1a4.82,4.82,0,0,0-3.1,1.1Z"/></g><g id="Fill-22-Clipped"><path id="Fill-22" class="cls-3" d="M96,43.9a2.4,2.4,0,1,1-2.4-2.4A2.43,2.43,0,0,1,96,43.9"/></g><g id="Fill-23-Clipped"><path id="Fill-23" class="cls-3" d="M131.2,43.9a2.4,2.4,0,1,1-2.4-2.4,2.43,2.43,0,0,1,2.4,2.4"/></g></g></g></g></g></g></g></svg>